<svg width="202" height="136" viewBox="0 0 202 136" fill="none" xmlns="http://www.w3.org/2000/svg">
<path d="M0.147949 28.8027H46.8509L48.19 44.737H47.7056C46.1272 32.7246 41.6256 30.0315 23.9895 30.0315H13.5275V108.348C13.5275 115.21 15.1116 116.439 23.2601 116.439V117.053H0.147949V116.439C7.32206 116.439 8.66115 115.215 8.66115 108.348V37.5077C8.66115 30.6459 7.32206 29.4171 0.147949 29.4171V28.8027ZM56.7032 28.8027H103.406L104.745 44.737H104.261C102.682 32.7246 98.1809 30.0315 80.5447 30.0315H70.0827V67.4126H80.5447C90.2774 67.4126 92.4655 65.9426 92.4655 59.4483H93.0752V76.6056H92.4655C92.4655 70.1113 90.2774 68.6414 80.5447 68.6414H70.0827V108.348C70.0827 115.21 71.6611 116.439 79.8154 116.439V117.053H56.7089V116.439C63.883 116.439 65.2221 115.215 65.2221 108.348V68.6414H33.3574C23.6248 68.6414 21.4367 70.1113 21.4367 76.6056H20.8269V59.4483H21.4367C21.4367 65.9426 23.6248 67.4126 33.3574 67.4126H65.2221V37.5077C65.2221 30.6459 63.883 29.4171 56.7089 29.4171V28.8027H56.7032Z" fill="#F5F5F5"/>
<path d="M116.541 106.384L122.501 35.0555C114.108 15.6874 93.6736 1.71689 72.7553 1.71689C66.3105 1.71689 61.0795 3.06628 57.7973 5.51815L57.313 4.90375C61.3246 1.71689 67.8947 0 76.0432 0C99.879 0 120.678 14.9524 128.826 37.9954L153.027 105.896L180.39 28.8081H193.769V29.4225C187.325 29.4225 185.621 31.6274 186.105 39.8386L191.701 106.389C192.43 114.354 194.499 116.438 201.063 116.438V117.053H179.17V116.438C185.615 116.438 187.319 114.233 186.834 106.022L180.629 31.8743L153.631 107.739L155.574 113.257C159.95 125.637 168.708 134.83 176.127 134.83V135.444C165.91 135.444 154.844 125.884 150.343 113.263L123.584 38.0126C123.584 37.8921 123.464 37.7657 123.464 37.6451L117.749 106.033C117.264 114.245 118.962 116.45 125.413 116.45V117.064H107.167V116.45C113.737 116.45 115.8 114.365 116.529 106.401L116.541 106.384Z" fill="#F5F5F5"/>
</svg>
