<?xml version="1.0" encoding="UTF-8"?>
<svg id="Layer_7" data-name="Layer 7" xmlns="http://www.w3.org/2000/svg" viewBox="0 0 883.64 1178.18">
  <polygon points="520.53 191.31 517.47 261.12 475.75 293.35 480.05 226.26 520.53 191.31"/>
  <polygon points="437.54 261.57 434.69 322.69 392.97 354.92 397.06 296.53 437.54 261.57"/>
  <polygon points="357.52 334.23 355.5 377.61 314.43 406.39 317.04 369.19 357.52 334.23"/>
  <polygon points="278.43 410.82 272.61 454.07 232.39 481.12 195.73 480.28 278.43 410.82"/>
  <g>
    <path d="M576.76,229.16v-86.47c0-2.93-3.39-4.57-5.68-2.73-19.13,15.38-73.41,63.11-84.65,72.95-91.39,80.02-275.36,249.54-300.1,272.35-1.77,1.63-2.78,3.92-2.78,6.33-.02,7.63-.05,24.94-.05,33.98,0,41.72,0,121.49,0,145.36,0,3.83,3.09,6.93,6.92,6.96,7.91.06,19.94.14,21.23.14-.11-19.17-.35-114.48-.35-114.48l29.55-7.7c3.21-.84,5.46-3.74,5.46-7.05l.05-24.51-34.53,11.67-.29-30.2s41.09-17.95,43.41-19.06c0,1.43-.16,36.71-.12,51.62.06,22.9.22,45.79.22,68.69,0,16.62.06,50.16.09,64.4,0,3.67,2.98,6.63,6.66,6.63h26.7l.04-23.85c.04-19.9.17-110.07.17-110.07l35.98-8.87c4.04-1,6.88-4.63,6.86-8.79-.04-8.69-.11-23.24-.16-31.07-18.31,6.13-25.51,8.58-42.77,14.41,0-4.67,0-11.63,0-15.59,0-5.91,0-8.54,0-9.61,0-.1-.02-1.91-.05-10.26,0-2.19.74-3.18,2.67-4.05,19.73-8.84,30.44-13.28,50.14-22.18.79-.36,1.62-.64,2.96-1.16,0,1.58,0,2.72,0,3.85-.02,28.17-.04,56.33-.05,84.5,0,46.43.02,92.86-.07,139.29,0,2.83.82,3.51,3.53,3.44,9.74-.24,27.22,0,33.99-.2.19-77.05,0-243.5,0-247.96,11.07-5.44,36.94-16.64,38.58-17.27v4.25c0,58.7-.04,260.59-.04,260.59l47.22-.57s.01-191.54-.05-282.31c0-2.54.75-3.86,3.12-4.92,19-8.48,28.93-13.1,47.89-21.67.95-.43,1.96-.75,3.4-1.31,0,1.83,0,3.17,0,4.51,0,99.8,0,306.4,0,306.4,0,0,21.16.48,43.95.65,5.97.04,10.83-4.77,10.83-10.74.01-15.57.03-42.56.03-43.24,0-104.36-.35-294.24-.44-336.73,0-3.93-4.16-6.45-7.65-4.65-23.98,12.36-98.37,50.75-134.58,70.04-52.97,28.23-105.86,56.61-158.75,85,64.35-42.03,217.24-142.5,296.18-198.44,3.35-2.37,5.34-6.22,5.34-10.32ZM553.13,225.05c-.13,3.4-1.83,6.54-4.6,8.51-11.79,8.38-44.32,31.55-60.4,43.2-83.66,60.6-171.24,121.15-239.68,170.25-2.51,1.8-4.74,3.97-6.88,6.18-.83.86,30.58-15.94,30.1-14.75.22.12-7.21,4.74-12.39,8.04-17.79,9.55-35.58,19.09-53.37,28.62,22.51-19.62,45.06-39.21,67.48-58.94,59.9-52.67,119.85-105.3,179.56-158.19,35.5-31.44,62.78-54.52,101.6-87.21.64-.54-.85,39.5-1.42,54.28Z"/>
    <path d="M288.6,484.59c0,.1,0-1.51,0,0h0Z"/>
  </g>
  <path d="M576.22,288.99c0-4.59-4.87-7.55-8.95-5.45-25.26,13.02-97.7,50.41-133.28,69.37-82.74,44.08-165.26,88.56-247.9,132.82-1.93,1.03-2.69,2.18-2.67,4.41.12,11.81.07,23.62.07,35.44,0,41.73,0,121.55,0,145.39,0,3.82,3.07,6.91,6.89,6.93h.37c11.49.08,20.84-9.22,20.8-20.71-.12-34.48-.27-93.63-.27-93.63l22.77-5.93c7.2-1.88,12.23-8.37,12.25-15.82l.03-17.51-34.53,11.67-.29-30.2s41.09-17.95,43.41-19.06c0,1.43-.16,36.71-.12,51.62.06,22.9.22,45.79.22,68.69,0,21.44.11,71.03.11,71.03h9.49c13.18,0,23.87-10.67,23.89-23.85h0c.04-19.9.17-110.07.17-110.07l30.74-7.58c7.12-1.76,12.11-8.16,12.08-15.49-.04-8.49-.09-19.29-.14-25.66-18.31,6.13-25.51,8.58-42.77,14.41,0-4.67,0-11.63,0-15.59,0-22.62.04,2.75-.05-19.87,0-2.19.74-3.18,2.67-4.05,19.73-8.84,30.44-13.28,50.14-22.18.79-.36,1.62-.64,2.96-1.16,0,1.58,0,2.72,0,3.85-.02,28.17-.04,56.33-.05,84.5,0,46.43.02,92.86-.07,139.29,0,2.83.82,3.51,3.53,3.44.1,0,.21,0,.31,0,18.74-.44,33.71-15.72,33.73-34.46.09-83.56-.06-209.83-.06-213.7,11.07-5.44,36.94-16.64,38.58-17.27,0,1.75,0,3,0,4.25,0,58.7-.04,260.59-.04,260.59l8.26-.1c21.59-.26,38.96-17.84,38.96-39.43,0-60.82,0-178.12-.05-243.35,0-2.54.75-3.86,3.12-4.92,19-8.48,28.93-13.1,47.89-21.67.95-.43,1.96-.75,3.4-1.31,0,1.83,0,3.17,0,4.51,0,99.8,0,306.4,0,306.4,0,0,4.48.1,11.53.23,23.76.43,43.26-18.71,43.28-42.48,0-6.3,0-10.81,0-11.08,0-103.21-.35-290.05-.43-335.26Z"/>
</svg>